<svg width="48" height="48" viewBox="0 0 48 48" fill="none" xmlns="http://www.w3.org/2000/svg">
<path fill-rule="evenodd" clip-rule="evenodd" d="M21 28C21 28.55 20.775 29 20.5 29C20.225 29 20 29.225 20 29.5C20 29.778 21.3335 30 23 30C25.3625 30 26 30.163 26 30.7665C26 31.762 22.762 35 21.7665 35C21.345 35 21 35.225 21 35.5C21 35.775 20.55 36 20 36C19.45 36 19 36.225 19 36.5C19 36.775 18.4215 37 17.7145 37C16.074 37 15 38.074 15 39.7145C15 40.8095 15.222 41 16.5 41C17.325 41 18 40.775 18 40.5C18 40.225 18.675 40 19.5 40C20.325 40 21 39.775 21 39.5C21 39.225 21.9 39 23 39C24.1 39 25 38.775 25 38.5C25 38.2 27 38 30 38H35V36.5V35H31C28.6665 35 27 34.7915 27 34.5C27 34.225 27.225 34 27.5 34C27.775 34 28 32.875 28 31.5C28 30.125 27.775 29 27.5 29C27.225 29 27 28.55 27 28C27 27.111 26.6665 27 24 27C21.3335 27 21 27.111 21 28Z" fill="black"/>
</svg>
