<svg width="48" height="48" viewBox="0 0 48 48" fill="none" xmlns="http://www.w3.org/2000/svg">
<path fill-rule="evenodd" clip-rule="evenodd" d="M19 25.5C19 25.775 18.6465 26 18.2145 26C17.782 26 17.091 26.3375 16.6785 26.75C16.012 27.4165 16.012 27.5835 16.6785 28.25C17.75 29.3215 19 29.187 19 28C19 27.146 19.3335 27 21.2855 27C23.9835 27 25 27.8205 25 29.9965C25 31.2205 24.451 32.0995 22.5 34C21.125 35.3395 20 36.562 20 36.7175C20 36.873 20.675 37 21.5 37C22.325 37 23 36.775 23 36.5C23 35.7215 27.4745 35.903 28.2855 36.7145C29.42 37.8485 29.163 40.3825 27.7725 41.7725C26.7195 42.826 26.081 43 23.2725 43C21.4725 43 20 43.1285 20 43.2855C20 44.34 21.728 45 24.487 45C27.0675 45 27.737 44.808 28.7725 43.7725C29.4475 43.0975 30 42.1975 30 41.7725C30 41.3475 30.225 41 30.5 41C30.775 41 31 39.9715 31 38.7145C31 36.355 30.1925 35 28.7855 35C28.3535 35 28 34.775 28 34.5C28 34.225 27.55 34 27 34C26.45 34 26 33.775 26 33.5C26 33.225 26.225 33 26.5 33C26.775 33 27 31.7465 27 30.2145C27 27.3475 26.292 26 24.7855 26C24.3535 26 24 25.775 24 25.5C24 25.225 22.875 25 21.5 25C20.125 25 19 25.225 19 25.5Z" fill="black"/>
</svg>
