<svg width="48" height="48" viewBox="0 0 48 48" fill="none" xmlns="http://www.w3.org/2000/svg">
<path fill-rule="evenodd" clip-rule="evenodd" d="M28 26C28 26.55 27.775 27 27.5 27C27.225 27 27 27.675 27 28.5C27 29.325 26.775 30 26.5 30C26.225 30 26 30.675 26 31.5C26 32.9165 25.889 33 24 33H22V30.5C22 29.125 21.8715 28 21.7145 28C20.1225 28 19.341 32.9125 20.7145 34.2855C21.107 34.6785 22.232 35 23.2145 35C24.1965 35 25 35.225 25 35.5C25 35.775 24.775 36 24.5 36C24.225 36 24 36.675 24 37.5C24 38.325 23.775 39 23.5 39C23.225 39 23 39.9 23 41C23 42.1 22.775 43 22.5 43C22.225 43 22 43.45 22 44C22 44.6665 22.3335 45 23 45C23.6665 45 24 44.6665 24 44C24 43.45 24.225 43 24.5 43C24.775 43 25 42.325 25 41.5C25 40.675 25.225 40 25.5 40C25.775 40 26 39.325 26 38.5C26 37.675 26.225 37 26.5 37C26.775 37 27 36.4075 27 35.6835C27 34.9485 27.4965 33.9255 28.125 33.3665C28.888 32.6875 29.049 32.293 28.625 32.141C27.885 31.8755 27.7755 30 28.5 30C28.775 30 29 29.344 29 28.5415C29 27.7395 29.279 26.9905 29.6205 26.8765C30.072 26.726 30.0135 26.442 29.4065 25.835C28.316 24.7445 28 24.7815 28 26Z" fill="black"/>
</svg>
