<svg width="48" height="48" viewBox="0 0 48 48" fill="none" xmlns="http://www.w3.org/2000/svg">
<path fill-rule="evenodd" clip-rule="evenodd" d="M26 26.5C26 26.775 25.325 27 24.5 27C23.675 27 23 27.225 23 27.5C23 27.775 22.1 28 21 28C19.3335 28 19 28.1665 19 29C19 29.55 18.775 30 18.5 30C18.222 30 18 31.3335 18 33V36H20C21.1 36 22 35.775 22 35.5C22 35.225 23.125 35 24.5 35H27V37.5C27 38.875 26.775 40 26.5 40C26.225 40 26 40.3535 26 40.7855C26 42.0885 24.6765 43 22.7855 43C21.135 43 21 43.1135 21 44.5C21 45.948 21.0795 46 23.2855 46C25.58 46 27 45.1955 27 43.896C27 43.5245 27.45 42.8965 28 42.5C28.587 42.0765 29 41.2055 29 40.3895C29 39.6255 29.225 39 29.5 39C29.775 39 30 38.1 30 37C30 35.9 29.775 35 29.5 35C29.225 35 29 34.6465 29 34.2145C29 32.708 27.6525 32 24.7855 32C23.2535 32 22 32.225 22 32.5C22 32.775 21.775 33 21.5 33C21.225 33 21 32.55 21 32C21 31.3335 21.3335 31 22 31C22.55 31 23 30.775 23 30.5C23 30.225 23.675 30 24.5 30C25.325 30 26 29.775 26 29.5C26 29.225 26.675 29 27.5 29C28.325 29 29 29.225 29 29.5C29 29.775 29.675 30 30.5 30C31.9165 30 32 29.889 32 28V26H29C27.3335 26 26 26.222 26 26.5Z" fill="black"/>
</svg>
