<svg width="48" height="48" viewBox="0 0 48 48" fill="none" xmlns="http://www.w3.org/2000/svg">
<path fill-rule="evenodd" clip-rule="evenodd" d="M16.625 27.748C15.6645 28.8385 15.842 29 18 29C19.1 29 20 29.225 20 29.5C20 29.7965 21.8335 30 24.5 30C28.4805 30 29 30.1025 29 30.8895C29 31.379 28.55 32.1035 28 32.5C27.45 32.8965 27 33.621 27 34.1105C27 34.5995 26.803 35 26.5625 35C26.322 35 25.994 35.655 25.834 36.456C25.6735 37.2565 24.9705 38.484 24.2715 39.183C23.572 39.8825 23 40.7525 23 41.117C23 41.481 22.55 42.1035 22 42.5C20.7245 43.4195 20.554 47 21.7855 47C23.0435 47 24 45.6985 24 43.9865C24 42.87 24.4435 41.987 25.5 41C26.325 40.2295 27 39.239 27 38.7995C27 38.3595 27.225 38 27.5 38C27.775 38 28 37.55 28 37C28 36.45 28.225 36 28.5 36C28.775 36 29 35.55 29 35C29 34.45 29.225 34 29.5 34C29.775 34 30 33.55 30 33C30 32.45 30.225 32 30.5 32C30.775 32 31 31.5685 31 31.0415C31 30.5145 31.279 29.9905 31.6205 29.8765C32.072 29.726 32.0135 29.442 31.4065 28.835C30.732 28.1605 29.556 28 25.2855 28C22.095 28 20 27.802 20 27.5C20 26.743 17.3375 26.9385 16.625 27.748Z" fill="black"/>
</svg>
