<svg width="48" height="48" viewBox="0 0 48 48" fill="none" xmlns="http://www.w3.org/2000/svg">
<path fill-rule="evenodd" clip-rule="evenodd" d="M24 25.5C24 25.775 23.55 26 23 26C22.45 26 22 26.225 22 26.5C22 26.775 21.6565 27 21.237 27C20.207 27 15.622 31.624 16.3965 31.882C16.7285 31.993 17 32.5145 17 33.0415C17 33.8265 17.3625 34 19 34C20.1 34 21 34.225 21 34.5C21 34.775 21.45 35 22 35C23.3515 35 23.2635 35.353 21.5 37C20.675 37.7705 20 38.761 20 39.2005C20 39.6405 19.775 40 19.5 40C18.5245 40 19.0185 42.564 20.2275 43.7725C22.1495 45.695 25.0465 45.4865 27.2665 43.2665C28.332 42.201 29 41.0455 29 40.2665C29 39.57 29.225 39 29.5 39C29.775 39 30 38.55 30 38C30 37.45 29.775 37 29.5 37C29.225 37 29 36.6325 29 36.1835C29 35.7345 28.5155 34.947 27.9235 34.4335L26.847 33.5L27.9235 32.5665C28.5155 32.053 29 31.315 29 30.9265C29 30.5385 29.45 29.8965 30 29.5C31.1655 28.66 31.3105 26.7395 30.2855 25.7145C29.4635 24.892 24 24.7055 24 25.5ZM28.2855 26.7145C29.3815 27.81 29.18 28.3465 26.763 30.763C24.662 32.8645 23 33.6315 23 32.5C23 32.225 22.1 32 21 32C19.9 32 19 31.8775 19 31.7275C19 31.119 21.5075 29 22.2275 29C22.6525 29 23 28.775 23 28.5C23 28.225 23.45 28 24 28C24.55 28 25 27.775 25 27.5C25 27.225 25.45 27 26 27C26.55 27 27 26.775 27 26.5C27 25.802 27.448 25.8765 28.2855 26.7145ZM27 37.7725C27 39.9145 25.161 42 23.2725 42C21.397 42 21.57 39.922 23.625 37.77C25.834 35.4575 27 35.4585 27 37.7725Z" fill="black"/>
</svg>
