<svg width="48" height="48" viewBox="0 0 48 48" fill="none" xmlns="http://www.w3.org/2000/svg">
<path fill-rule="evenodd" clip-rule="evenodd" d="M25 24.5C25 24.775 23.9715 25 22.7145 25C19.949 25 19 25.8215 19 28.2145C19 29.1965 18.775 30 18.5 30C18.225 30 18 30.675 18 31.5C18 32.325 17.775 33 17.5 33C17.2055 33 17 34.7575 17 37.2725C17 41.1425 17.1155 41.661 18.2275 42.7725C19.2805 43.826 19.919 44 22.7275 44C24.576 44 26 43.7825 26 43.5C26 43.225 26.45 43 27 43C27.55 43 28 42.775 28 42.5C28 42.225 28.45 42 29 42C29.6255 42 30 41.6665 30 41.1105C30 40.621 30.45 39.8965 31 39.5C31.55 39.1035 32 38.379 32 37.8895C32 37.4005 32.225 37 32.5 37C32.7915 37 33 35.3335 33 33C33 30.6665 32.7915 29 32.5 29C32.225 29 32 28.6525 32 28.2275C32 26.7805 29.668 25 27.7725 25C26.7975 25 26 24.775 26 24.5C26 24.225 25.775 24 25.5 24C25.225 24 25 24.225 25 24.5ZM28.7725 28.2275C29.4475 28.9025 30 29.8025 30 30.2275C30 30.6525 30.225 31 30.5 31C30.775 31 31 32.125 31 33.5C31 34.875 30.775 36 30.5 36C30.225 36 30 36.3475 30 36.7725C30 37.773 27.773 40 26.7725 40C26.3475 40 26 40.225 26 40.5C26 40.7855 24.5 41 22.5 41H19V37C19 34.6665 19.2085 33 19.5 33C19.775 33 20 32.325 20 31.5C20 30.675 20.225 30 20.5 30C20.775 30 21 29.653 21 29.229C21 27.7195 22.2015 27.0385 24.8975 27.019C27.057 27.0035 27.772 27.2265 28.7725 28.2275Z" fill="black"/>
</svg>
