<svg width="48" height="48" viewBox="0 0 48 48" fill="none" xmlns="http://www.w3.org/2000/svg">
<path fill-rule="evenodd" clip-rule="evenodd" d="M22 22C22 22.55 21.775 23 21.5 23C21.225 23 21 23.45 21 24C21 24.55 20.775 25 20.5 25C20.225 25 20 25.45 20 26C20 26.55 19.775 27 19.5 27C19.225 27 19 27.45 19 28C19 28.55 18.775 29 18.5 29C18.225 29 18 29.45 18 30C18 30.55 17.775 31 17.5 31C17.222 31 17 32.3335 17 34C17 35.6665 17.222 37 17.5 37C17.775 37 18 37.3535 18 37.7855C18 38.796 19.204 40 20.2145 40C20.6465 40 21 40.225 21 40.5C21 40.7915 22.6665 41 25 41C28.332 41 29 40.8665 29 40.2005C29 39.761 29.675 38.7705 30.5 38C31.325 37.2295 32 36.239 32 35.7995C32 35.3595 32.225 35 32.5 35C33.2425 35 33.105 33.5335 32.2855 32.7145C31.893 32.3215 31.098 32 30.519 32C29.3045 32 26 35.0955 26 36.2335C26 36.655 25.775 37 25.5 37C25.225 37 25 37.45 25 38C25 38.6665 24.6665 39 24 39C23.45 39 23 38.775 23 38.5C23 38.225 22.6525 38 22.2275 38C21.8025 38 20.9025 37.4475 20.2275 36.7725C19.284 35.8295 19 35.019 19 33.2725C19 32.0225 19.225 31 19.5 31C19.775 31 20 30.5995 20 30.1105C20 29.621 20.45 28.8965 21 28.5C21.55 28.1035 22 27.379 22 26.8895C22 26.4005 22.225 26 22.5 26C22.775 26 23 25.55 23 25C23 24.45 23.225 24 23.5 24C23.775 24 24 23.325 24 22.5C24 21.3335 23.778 21 23 21C22.3335 21 22 21.3335 22 22Z" fill="black"/>
</svg>
