<svg width="48" height="48" viewBox="0 0 48 48" fill="none" xmlns="http://www.w3.org/2000/svg">
<path fill-rule="evenodd" clip-rule="evenodd" d="M21 26.5C21 27.325 21.225 28 21.5 28C21.775 28 22 29.125 22 30.5C22 31.875 22.225 33 22.5 33C22.775 33 23 33.9 23 35C23 36.1 23.225 37 23.5 37C23.778 37 24 38.3335 24 40C24 41.6665 24.222 43 24.5 43C24.775 43 25 43.45 25 44C25 45.1845 25.317 45.2545 26.2855 44.2855C27.108 43.4635 27.2945 38 26.5 38C26.225 38 26 37.325 26 36.5C26 35.675 25.775 35 25.5 35C25.225 35 25 33.875 25 32.5C25 31.125 24.775 30 24.5 30C24.225 30 24 29.1965 24 28.2145C24 26.3235 23.0885 25 21.7855 25C21.246 25 21 25.4695 21 26.5Z" fill="black"/>
</svg>
