<svg width="48" height="48" viewBox="0 0 48 48" fill="none" xmlns="http://www.w3.org/2000/svg">
<path fill-rule="evenodd" clip-rule="evenodd" d="M25 26.5C25 26.775 24.43 27 23.7335 27C22.9545 27 21.799 27.668 20.7335 28.7335C19.2655 30.2015 19 30.8135 19 32.7335C19 33.98 19.225 35 19.5 35C19.775 35 20 35.45 20 36C20 36.652 20.3335 37 20.9585 37C21.4855 37 22.0175 37.281 22.141 37.625C22.293 38.049 22.6875 37.888 23.3665 37.125C23.917 36.5065 24.5095 36 24.6835 36C24.8575 36 25 38.25 25 41C25 45.6665 25.0665 46 26 46C26.926 46 27 45.6665 27 41.5C27 38.8335 27.2035 37 27.5 37C27.775 37 28 35.875 28 34.5C28 33.125 28.225 32 28.5 32C29.558 32 29.021 28.4755 27.7725 27.2275C26.53 25.985 25 25.5835 25 26.5ZM26.2855 28.7145C27.3265 29.755 27.1705 31 26 31C25.4315 31 25 31.3335 25 31.7725C25 32.6625 22.8175 35 21.987 35C21.055 35 19.6545 33.365 20.3795 33.1235C20.721 33.0095 21 32.5875 21 32.1855C21 31.2185 23.2475 29 24.2275 29C24.6525 29 25 28.775 25 28.5C25 27.802 25.448 27.8765 26.2855 28.7145Z" fill="black"/>
</svg>
